# xmcd CD database file
#
# Track frame offsets:
#	150
#	15951
#	30468
#	48864
#	64376
#	81415
#	96268
#	111805
#	129669
#	145115
#	162364
#	178658
#	193638
#	210962
#	229826
#	249801
#
# Disc length: 3587 seconds
#
# Revision: 1
# Processed by: cddbd v1.5.2PL0 Copyright (c) Steve Scherf et al.
# Submitted via: CDex 1.70beta2
#
DISCID=ce0e0110
DTITLE=Alina - Die Einzige
DYEAR=2017
DGENRE=Deutsch Pop
TTITLE0=Herzstreik
TTITLE1=Zurück zu mir
TTITLE2=Die Einzige
TTITLE3=Nie vergessen
TTITLE4=Mit Größe gehen
TTITLE5=Kompass
TTITLE6=Für mich schon Liebe
TTITLE7=Titan
TTITLE8=Immer wenn es weh tut
TTITLE9=Kind sein
TTITLE10=Stadt aus Gold
TTITLE11=Schönheitskönigin
TTITLE12=Spiel unsere Lieder
TTITLE13=Auch wenn du fehlst
TTITLE14=Worte sind Mörder
TTITLE15=Haut aus Glas
EXTD=YEAR: 2017
EXTT0=
EXTT1=
EXTT2=
EXTT3=
EXTT4=
EXTT5=
EXTT6=
EXTT7=
EXTT8=
EXTT9=
EXTT10=
EXTT11=
EXTT12=
EXTT13=
EXTT14=
EXTT15=
PLAYORDER=
